# xmcd
#
# Track frame offsets: 
#        150
#        17656
#        33255
#        52669
#        71508
#        86793
#        108936
#        134301
#        150061
#        171119
#
# Disc length: 2581 seconds
#
# Revision: 0
# Processed by: cddbd v1.5.2PL0 Copyright (c) Steve Scherf et al.
# Submitted via: ExactAudioCopy v0.95a4
#
DISCID=6b0a130a
DTITLE=Bogart, Deanna - Real Time
DYEAR=2006
DGENRE=Blues
TTITLE0=Real Time
TTITLE1=Everybody Has A Story
TTITLE2=Blue By Night
TTITLE3=Are You Lonely For Me Baby
TTITLE4=Blues In The 'Bine
TTITLE5=Baby You Got What It Takes
TTITLE6=Tender Days
TTITLE7=Bite The Bullet
TTITLE8=Wonder What The Weather Is Today
TTITLE9=Table For Three
EXTD=
EXTT0=
EXTT1=
EXTT2=
EXTT3=
EXTT4=
EXTT5=
EXTT6=
EXTT7=
EXTT8=
EXTT9=
PLAYORDER=
